<svg width="34" height="34" viewBox="0 0 34 34" fill="none" xmlns="http://www.w3.org/2000/svg">
<path d="M24.0833 4.2513H29.7499C30.5323 4.2513 31.1666 4.88557 31.1666 5.66797V28.3346C31.1666 29.1171 30.5323 29.7513 29.7499 29.7513H4.24992C3.46752 29.7513 2.83325 29.1171 2.83325 28.3346V5.66797C2.83325 4.88557 3.46752 4.2513 4.24992 4.2513H9.91659V1.41797H12.7499V4.2513H21.2499V1.41797H24.0833V4.2513ZM5.66659 12.7513V26.918H28.3333V12.7513H5.66659ZM8.49992 15.5846H11.3333V18.418H8.49992V15.5846ZM15.5833 15.5846H18.4166V18.418H15.5833V15.5846ZM22.6666 15.5846H25.4999V18.418H22.6666V15.5846Z" fill="black"/>
</svg>
