<svg width="24" height="24" viewBox="0 0 24 24" fill="none" xmlns="http://www.w3.org/2000/svg">
<path d="M1.33333 0H22.6667C23.4031 0 24 0.59696 24 1.33333V22.6667C24 23.4031 23.4031 24 22.6667 24H1.33333C0.59696 24 0 23.4031 0 22.6667V1.33333C0 0.59696 0.59696 0 1.33333 0ZM2.66667 2.66667V21.3333H21.3333V2.66667H2.66667ZM10.6667 13.056C9.48933 12.5416 8.66667 11.3669 8.66667 10C8.66667 8.15905 10.1591 6.66667 12 6.66667C13.8409 6.66667 15.3333 8.15905 15.3333 10C15.3333 11.3669 14.5107 12.5416 13.3333 13.056V17.3333H10.6667V13.056Z" fill="black"/>
</svg>
