<svg width="20" height="20" viewBox="0 0 20 20" fill="none" xmlns="http://www.w3.org/2000/svg">
<path d="M12 18.75C12 19.207 12.0969 19.6328 12.2688 20H12.25C11.5594 20 11 19.3008 11 18.4375V17.5V15C11 14.3086 10.5531 13.75 10 13.75H8C7.44688 13.75 7 14.3086 7 15V17.5V18.4375C7 19.3008 6.44063 20 5.75 20H5H4.00313C3.95625 20 3.90937 19.9961 3.8625 19.9922C3.825 19.9961 3.7875 20 3.75 20H3.25C2.55938 20 2 19.3008 2 18.4375V14.0625C2 14.0273 2 13.9883 2.00312 13.9531V11.2344H1C0.4375 11.2344 0 10.6875 0 9.98047C0 9.62891 0.09375 9.31641 0.3125 9.04297L8.325 0.3125C8.54375 0.0390625 8.79375 0 9.0125 0C9.23125 0 9.48125 0.078125 9.66875 0.273438L15.3344 6.49609C13.975 7.09766 13 8.71875 13 10.625V11.5859C12.4031 12.0195 12 12.8242 12 13.75V18.75ZM16.5 9.375C15.9469 9.375 15.5 9.93359 15.5 10.625V12.5H17.5V10.625C17.5 9.93359 17.0531 9.375 16.5 9.375ZM14 10.625C14 8.89844 15.1187 7.5 16.5 7.5C17.8813 7.5 19 8.89844 19 10.625V12.5C19.5531 12.5 20 13.0586 20 13.75V18.75C20 19.4414 19.5531 20 19 20H14C13.4469 20 13 19.4414 13 18.75V13.75C13 13.0586 13.4469 12.5 14 12.5V10.625Z" fill="black"/>
</svg>
