<svg width="21" height="21" viewBox="0 0 21 21" fill="none" xmlns="http://www.w3.org/2000/svg">
<path d="M7 2.36396V4.36396H2V18.364H18V9.36396H20V19.364C20 19.9163 19.5523 20.364 19 20.364H1C0.44772 20.364 0 19.9163 0 19.364V3.36396C0 2.81168 0.44772 2.36396 1 2.36396H7ZM16.9497 4.36396L14 1.41422L15.4142 0L20.7539 5.3397C20.9882 5.57401 20.9882 5.95391 20.7539 6.18823C20.6414 6.30075 20.4888 6.36396 20.3296 6.36396H12C10.8954 6.36396 10 7.25939 10 8.36396V14.364H8V8.36396C8 6.15482 9.7909 4.36396 12 4.36396H16.9497Z" fill="black"/>
</svg>
