<svg width="24" height="24" viewBox="0 0 24 24" fill="none" xmlns="http://www.w3.org/2000/svg">
<path d="M9.6 21.2976V17.28C9.6 15.7409 10.7938 14.5291 12.56 13.8385C11.4517 13.4256 10.2522 13.2 9 13.2C6.73216 13.2 4.63718 13.9402 2.94343 15.192C3.99839 18.1853 6.49528 20.4984 9.6 21.2976ZM20.2553 16.9031C19.7834 16.2631 18.205 15.6 16.2 15.6C13.7927 15.6 12 16.556 12 17.28V21.6C15.5106 21.6 18.5812 19.7155 20.2553 16.9031ZM9.06 11.4C10.5511 11.4 11.76 10.1911 11.76 8.7C11.76 7.20883 10.5511 6 9.06 6C7.56883 6 6.36 7.20883 6.36 8.7C6.36 10.1911 7.56883 11.4 9.06 11.4ZM16.2 12.6C17.5255 12.6 18.6 11.5255 18.6 10.2C18.6 8.87452 17.5255 7.8 16.2 7.8C14.8745 7.8 13.8 8.87452 13.8 10.2C13.8 11.5255 14.8745 12.6 16.2 12.6ZM12 24C5.37258 24 0 18.6274 0 12C0 5.37258 5.37258 0 12 0C18.6274 0 24 5.37258 24 12C24 18.6274 18.6274 24 12 24Z" fill="white"/>
<path d="M9.6 21.2976V17.28C9.6 15.7409 10.7938 14.5291 12.56 13.8385C11.4517 13.4256 10.2522 13.2 9 13.2C6.73216 13.2 4.63718 13.9402 2.94343 15.192C3.99839 18.1853 6.49528 20.4984 9.6 21.2976ZM20.2553 16.9031C19.7834 16.2631 18.205 15.6 16.2 15.6C13.7927 15.6 12 16.556 12 17.28V21.6C15.5106 21.6 18.5812 19.7155 20.2553 16.9031ZM9.06 11.4C10.5511 11.4 11.76 10.1911 11.76 8.7C11.76 7.20883 10.5511 6 9.06 6C7.56883 6 6.36 7.20883 6.36 8.7C6.36 10.1911 7.56883 11.4 9.06 11.4ZM16.2 12.6C17.5255 12.6 18.6 11.5255 18.6 10.2C18.6 8.87452 17.5255 7.8 16.2 7.8C14.8745 7.8 13.8 8.87452 13.8 10.2C13.8 11.5255 14.8745 12.6 16.2 12.6ZM12 24C5.37258 24 0 18.6274 0 12C0 5.37258 5.37258 0 12 0C18.6274 0 24 5.37258 24 12C24 18.6274 18.6274 24 12 24Z" fill="black"/>
</svg>
