<svg width="24" height="24" viewBox="0 0 24 24" fill="none" xmlns="http://www.w3.org/2000/svg">
<path d="M0 24C0 18.9505 4.09659 14.8571 9.15 14.8571C14.2034 14.8571 18.3 18.9505 18.3 24H0ZM9.15 13.7143C5.35847 13.7143 2.2875 10.6457 2.2875 6.85714C2.2875 3.06857 5.35847 0 9.15 0C12.9415 0 16.0125 3.06857 16.0125 6.85714C16.0125 10.6457 12.9415 13.7143 9.15 13.7143ZM17.5712 16.2665C21.1001 17.1677 23.7533 20.2554 24 24H20.5875C20.5875 21.0174 19.444 18.3016 17.5712 16.2665ZM15.2577 13.665C17.1251 11.9911 18.3 9.56122 18.3 6.85714C18.3 5.23733 17.8784 3.7159 17.139 2.39642C19.7586 2.91882 21.7313 5.22817 21.7313 8C21.7313 11.1571 19.1721 13.7143 16.0125 13.7143C15.7566 13.7143 15.5047 13.6975 15.2577 13.665Z" fill="black"/>
</svg>
