<svg width="24" height="24" viewBox="0 0 24 24" fill="none" xmlns="http://www.w3.org/2000/svg">
<path d="M10.1321 14.2143V22.9616H0C0 18.1306 4.53629 14.2143 10.1321 14.2143ZM10.1321 13.1209C5.9336 13.1209 2.53302 10.1851 2.53302 6.56045C2.53302 2.9358 5.9336 0 10.1321 0C14.3306 0 17.7312 2.9358 17.7312 6.56045C17.7312 10.1851 14.3306 13.1209 10.1321 13.1209ZM22.0958 20.8098L24 22.4537L22.2089 24L20.3047 22.3561C19.5505 22.7408 18.6706 22.9616 17.7312 22.9616C14.9333 22.9616 12.6651 21.0034 12.6651 18.588C12.6651 16.1725 14.9333 14.2143 17.7312 14.2143C20.529 14.2143 22.7972 16.1725 22.7972 18.588C22.7972 19.399 22.5415 20.1586 22.0958 20.8098ZM17.7312 20.7748C19.1301 20.7748 20.2642 19.7957 20.2642 18.588C20.2642 17.3802 19.1301 16.4011 17.7312 16.4011C16.3322 16.4011 15.1981 17.3802 15.1981 18.588C15.1981 19.7957 16.3322 20.7748 17.7312 20.7748Z" fill="black"/>
</svg>
